<?xml version="1.0" encoding="iso-8859-1"?>
<!-- Generator: Adobe Illustrator 19.0.0, SVG Export Plug-In . SVG Version: 6.00 Build 0)  -->
<svg version="1.1" id="Layer_1" xmlns="http://www.w3.org/2000/svg" xmlns:xlink="http://www.w3.org/1999/xlink" x="0px" y="0px"
	 viewBox="0 0 512 512" style="enable-background:new 0 0 512 512;" xml:space="preserve">
<circle style="fill:#21D0C3;" cx="256" cy="256" r="256"/>
<g>
	<path style="fill:#666666;" d="M270.251,267.525v25.829h-16.554v-25.829c2.741,0.06,5.5,0.095,8.278,0.095
		C264.753,267.62,267.51,267.585,270.251,267.525z"/>
	<path style="fill:#666666;" d="M261.975,37.396c63.846,0,115.609,51.762,115.609,115.609s-51.762,115.606-115.609,115.606
		s-115.609-51.76-115.609-115.606S198.126,37.396,261.975,37.396z"/>
</g>
<path style="fill:#FAD24D;" d="M261.975,52.376c55.573,0,100.628,45.055,100.628,100.628s-45.055,100.628-100.628,100.628
	s-100.629-45.055-100.629-100.628S206.402,52.376,261.975,52.376z"/>
<path style="fill:#666666;" d="M249.298,467.739h25.349c3.525,0,6.41-2.959,6.41-6.568v-155.13c0-3.612-2.901-6.57-6.41-6.57
	h-25.348c-3.507,0-6.408,2.974-6.408,6.57v155.13C242.891,464.765,245.776,467.739,249.298,467.739z"/>
<path style="fill:#FEFEFE;" d="M281.055,311.209v-11.287c0-3.609-2.888-6.568-6.408-6.568h-25.348c-3.517,0-6.408,2.964-6.408,6.568
	v11.287h38.167H281.055z"/>
<path style="fill:#ECF0F1;" d="M281.055,311.209v-11.284c0-3.457-2.647-6.314-5.964-6.552v17.839h5.964V311.209z M248.85,293.37
	c-3.313,0.239-5.962,3.098-5.962,6.552v11.284h5.962v-17.839V293.37z"/>
<path style="fill:#FED298;" d="M164.885,436.925l-66.769,3.2l-43.448-80.477l109.757-6.033
	c16.41-22.687,27.607-44.539,78.462-42.682l-0.039,10.66l55.177-0.588c19.001-0.902,21.826,30.367,1.241,31.343l-2.83,0.243
	l-0.454,2.576l7.754-0.567c15.79-1.411,18.128,28.596,0.163,30.199l-13.493,1.867l-0.314,2.196l8.677-1.12
	c14.534-1.316,14.87,28.326-0.519,30.086l-10.369,1.711l0.029,1.595l4.242-0.045c14.429-0.598,12.523,25.904-1.076,27.353
	c-16.525,1.766-18.24,1.658-35.185,2.864C231.905,452.146,175.333,457.706,164.885,436.925z"/>
<path style="fill:#F0B97D;" d="M164.287,437.084l-86.129,3.037c-1.804-1.745-3.58-3.515-5.333-5.312l93.419-2.418
	c2.46-0.372,3.822,1.421,4.816,2.321c11.3,26.382,104.825,10.464,125.634,10.804l0.569,0.003c-1.666,1.582-3.735,2.66-6.185,2.919
	l-0.055,0.008c-27.019,2.586-110.402,15.085-126.733-11.363L164.287,437.084L164.287,437.084z"/>
<path style="fill:#FFFFFF;" d="M146.272,349.153l1.891,94.31l-22.107,0.102l-1.886-95.097l22.104,0.685h-0.002V349.153z"/>
<path style="fill:#0F7986;" d="M132.962,345.101l1.408,101.825l-47.943,0.839c-35.358-31.29-61.99-72.206-75.813-118.641
	L132.962,345.101z"/>
<g>
	<path style="fill:#FAD24D;" d="M121.353,436.77c0.034,3.25-2.51,5.909-5.676,5.941c-3.169,0.032-5.763-2.578-5.787-5.826
		c-0.034-3.248,2.51-5.909,5.674-5.943c3.169-0.029,5.76,2.578,5.789,5.826C121.353,436.768,121.353,436.77,121.353,436.77z"/>
	<path style="fill:#FAD24D;" d="M105.718,437.281c0.034,3.25-2.51,5.909-5.676,5.941c-3.169,0.032-5.763-2.578-5.787-5.826
		c-0.034-3.248,2.51-5.909,5.674-5.943c3.169-0.029,5.76,2.578,5.789,5.826C105.718,437.279,105.718,437.281,105.718,437.281z"/>
</g>
<g>
	<path style="fill:#FEFEFE;" d="M191.582,184.993l48.888-65.148l3.749,2.652l-5.935,8.391l1.901-1.909l52.562,52.337l40.84-57.745
		l3.749,2.652l-41.288,58.378l1.833,1.825l-3.237,3.253l-1.283-1.277l-3.037,4.294l-3.749-2.652l3.486-4.926l-52.885-52.659
		l-41.842,55.185l-3.749-2.652L191.582,184.993z"/>
	<circle style="fill:#FEFEFE;" cx="238.474" cy="129.287" r="10.04"/>
	<circle style="fill:#FEFEFE;" cx="293.018" cy="184.919" r="10.04"/>
	<circle style="fill:#FEFEFE;" cx="330.924" cy="129.278" r="10.04"/>
	<circle style="fill:#FEFEFE;" cx="196.297" cy="181.196" r="10.04"/>
</g>
<g>
	<path style="fill:#FFD95E;" d="M252.417,251.966c-50.42-3.072-90.391-46.199-90.391-98.961s39.972-95.889,90.391-98.961
		c-5.312,1.303-10.453,3.051-15.392,5.196c-37.739,13.383-64.864,50.304-64.864,93.762c0,43.46,27.122,80.379,64.864,93.762
		c4.939,2.148,10.08,3.895,15.392,5.196V251.966z"/>
	<path style="fill:#FFD95E;" d="M276.787,245.083c44.615-2.856,79.983-42.986,79.983-92.075c0-49.092-35.369-89.219-79.983-92.075
		c1.028,0.267,2.051,0.551,3.066,0.855c40.99,6.623,72.437,44.934,72.437,91.22c0,46.289-31.445,84.6-72.437,91.22
		C278.838,244.532,277.815,244.816,276.787,245.083z"/>
</g>
<g>
</g>
<g>
</g>
<g>
</g>
<g>
</g>
<g>
</g>
<g>
</g>
<g>
</g>
<g>
</g>
<g>
</g>
<g>
</g>
<g>
</g>
<g>
</g>
<g>
</g>
<g>
</g>
<g>
</g>
</svg>
