<?xml version="1.0" encoding="iso-8859-1"?>
<!-- Generator: Adobe Illustrator 19.0.0, SVG Export Plug-In . SVG Version: 6.00 Build 0)  -->
<svg version="1.1" id="Layer_1" xmlns="http://www.w3.org/2000/svg" xmlns:xlink="http://www.w3.org/1999/xlink" x="0px" y="0px"
	 viewBox="0 0 512 512" style="enable-background:new 0 0 512 512;" xml:space="preserve">
<circle style="fill:#FF5B62;" cx="256" cy="256" r="256"/>
<path style="fill:#FFFFFF;" d="M225.137,59.203h194.584C476.103,106.163,512,176.886,512,256c0,141.385-114.615,256-256,256
	c-32.174,0-62.958-5.953-91.327-16.789V135.085V70.122c0-6.004,4.909-10.914,10.914-10.914h49.55V59.203z"/>
<g>
	<path style="fill:#ECF0F1;" d="M208.501,388.401h81.946v4.993h-81.946V388.401z M208.501,412.729h58.049v4.993h-58.049V412.729z
		 M208.501,400.563h81.946v4.993h-81.946V400.563z"/>
	<path style="fill:#ECF0F1;" d="M357.872,388.401h81.946v4.993h-81.946L357.872,388.401L357.872,388.401z M357.872,412.729h58.049
		v4.993h-58.049V412.729z M357.872,400.563h81.946v4.993h-81.946L357.872,400.563L357.872,400.563z"/>
</g>
<path style="fill:#FAD24D;" d="M345.881,286.729h105.927v84.21H345.881V286.729z"/>
<path style="fill:#21D0C3;" d="M196.51,286.729h105.927v84.21H196.51V286.729z"/>
<path style="fill:#828282;" d="M175.592,59.203h244.13c11.894,9.908,22.872,20.872,32.798,32.747H164.673V70.122
	c0-6.004,4.909-10.914,10.914-10.914L175.592,59.203z"/>
<path style="fill:#FFFFFF;" d="M366.694,70.51h65.735c3.833,3.649,7.547,7.426,11.15,11.307H366.69
	c-1.612,0-2.933-1.321-2.933-2.933v-5.441c0-1.612,1.321-2.933,2.933-2.933L366.694,70.51L366.694,70.51z"/>
<path style="fill:#21D0C3;" d="M186.446,68.561c3.473,0,6.286,2.813,6.286,6.286c0,3.473-2.813,6.286-6.286,6.286
	s-6.286-2.813-6.286-6.286S182.973,68.561,186.446,68.561z"/>
<path style="fill:#FAD24D;" d="M211.258,68.561c3.473,0,6.286,2.813,6.286,6.286c0,3.473-2.813,6.286-6.286,6.286
	c-3.473,0-6.286-2.813-6.286-6.286C204.972,71.374,207.784,68.561,211.258,68.561z"/>
<path style="fill:#FF5B62;" d="M236.07,68.561c3.473,0,6.286,2.813,6.286,6.286c0,3.473-2.813,6.286-6.286,6.286
	c-3.473,0-6.286-2.813-6.286-6.286S232.597,68.561,236.07,68.561z"/>
<path style="fill:#ECF0F1;" d="M189.235,103.955H461.96c27.994,37.86,45.796,83.702,49.366,133.491h-322.09V103.955z"/>
<path style="fill:#FED298;" d="M189.841,334.815l-94.476,3.538c-21.616-28.849-35.13-64.118-37.148-102.435l135.247,5.579
	c4.397-9.588,15.413-22.748,23.159-24.909l22.683-24.314l5.99-19.366l3.021-23.505c1.16-9.015,15.177-9.908,22.082-1.612
	c7.811,9.363,8.498,32.183,5.565,42.405l-9.773,34.114l50.424,1.206l16.775-0.794c17.939-0.854,20.609,28.669,1.169,29.592
	l-15.237,0.73l-0.429,2.429l17.524-1.561c14.91-1.33,17.598,27.024,0.638,28.535l-23.237,2.074l-0.485,2.762l17.177-1.557
	c13.722-1.243,15.098,26.567,0.573,28.23l-19.833,2.287l0.028,1.506l12.988-0.54c13.625-0.564,14.226,23.801,1.385,25.168
	c-15.603,1.668-28.604,2.716-44.604,3.856c-25.398,0.891-68.099,8.444-87.18-8.762c-1.714-1.547-3.071-3.136-4.018-4.665
	L189.841,334.815z"/>
<path style="fill:#F0B97D;" d="M189.841,334.815l-94.476,3.538c-1.288-1.723-2.55-3.464-3.779-5.229l100.102-2.735
	c2.323-0.351,3.607,1.344,4.545,2.19c10.669,24.909,103.678,9.88,123.326,10.203c6.753,0.111,13.492-3.482,13.492-3.482
	c-1.52,2.725-3.986,4.725-7.414,5.09c-15.603,1.668-28.604,2.716-44.604,3.856c-25.398,0.891-68.099,8.444-87.18-8.762
	c-1.714-1.547-3.071-3.136-4.018-4.665L189.841,334.815z"/>
<path style="fill:#FAD24D;" d="M142.896,229.017l1.325,114.841l-127.94,2.134C5.764,317.993,0,287.671,0,256
	c0-9.746,0.564-19.357,1.621-28.817L142.896,229.017z"/>
<path style="fill:#FFFFFF;" d="M163.371,232.324l1.788,107.825l-20.872,0.111l-1.783-107.829L163.371,232.324z"/>
<path style="fill:#FAD24D;" d="M132.176,333.803c0.032,3.071-2.369,5.579-5.358,5.612c-2.988,0.032-5.436-2.429-5.464-5.496
	c-0.032-3.067,2.369-5.579,5.358-5.612c2.988-0.028,5.441,2.429,5.464,5.501L132.176,333.803L132.176,333.803z"/>
<g>
	<path style="fill:#FFFFFF;" d="M258.143,152.354l-0.775,14.327c-3.039-1.141-6.161-1.737-9.455-1.141l0.937-13.044
		c0.577-8.083,9.732-8.166,9.293-0.139V152.354z"/>
	<path style="fill:#FFFFFF;" d="M260.305,111.788h3.081v13.792h-3.081V111.788z M246.637,113.285l-2.965,0.836l3.742,13.274
		l2.965-0.836l-3.742-13.27V113.285z M275.87,113.285l2.965,0.836l-3.742,13.274l-2.965-0.836l3.746-13.27L275.87,113.285z
		 M319.74,170.894l-0.241,3.071l-13.75-1.072l0.241-3.071L319.74,170.894z M318.155,155.339l0.605,3.021l-13.524,2.702l-0.605-3.025
		L318.155,155.339z M312.414,140.789l1.399,2.749l-12.281,6.268l-1.404-2.744L312.414,140.789z M302.936,128.351l2.092,2.264
		l-10.124,9.367l-2.092-2.264L302.936,128.351z M290.447,118.948l2.624,1.612l-7.201,11.759l-2.628-1.607l7.205-11.759V118.948z
		 M202.769,170.899l0.241,3.071l13.75-1.072l-0.236-3.071l-13.75,1.072H202.769z M204.348,155.344l-0.605,3.021l13.529,2.702
		l0.605-3.025L204.348,155.344z M210.094,140.794l-1.404,2.749l12.286,6.268l1.399-2.744l-12.286-6.273H210.094z M219.567,128.355
		l-2.092,2.264l10.124,9.367l2.088-2.264L219.567,128.355z M232.061,118.952l-2.628,1.612l7.201,11.759l2.628-1.607l-7.201-11.759
		V118.952z"/>
</g>
<g>
</g>
<g>
</g>
<g>
</g>
<g>
</g>
<g>
</g>
<g>
</g>
<g>
</g>
<g>
</g>
<g>
</g>
<g>
</g>
<g>
</g>
<g>
</g>
<g>
</g>
<g>
</g>
<g>
</g>
</svg>
