<?xml version="1.0" encoding="iso-8859-1"?>
<!-- Generator: Adobe Illustrator 19.0.0, SVG Export Plug-In . SVG Version: 6.00 Build 0)  -->
<svg version="1.1" id="Layer_1" xmlns="http://www.w3.org/2000/svg" xmlns:xlink="http://www.w3.org/1999/xlink" x="0px" y="0px"
	 viewBox="0 0 512 512" style="enable-background:new 0 0 512 512;" xml:space="preserve">
<path style="fill:#FF757C;" d="M256.001,512C397,512,512,397,512,256.001C512,115,397,0,256.001,0C115.001,0,0,115,0,256.001
	C0,397,115.001,512,256.001,512z"/>
<path style="fill:#20D0C2;" d="M34.892,341.859h442.213V52.327H34.892V341.859z"/>
<path style="fill:#DFE1E3;" d="M468.42,52.327H255.999v277.661H468.42V52.327z"/>
<path style="fill:#FFFFFF;" d="M460.9,52.327H255.999v260.089H460.9V52.327z"/>
<path style="fill:#DFE1E3;" d="M43.576,52.327h212.423v277.661H43.576V52.327z"/>
<path style="fill:#FFFFFF;" d="M51.096,52.327h204.902v260.089H51.096V52.327z"/>
<path style="fill:#ECF0F1;" d="M252.524,52.327h6.949v260.089h-6.949V52.327z"/>
<path style="fill:#FBB429;" d="M68.606,81.755h109.4v-15.03h-109.4V81.755z"/>
<path style="fill:#ECF0F1;" d="M68.606,197.049h158.161v8.033H68.606V197.049z M279.369,197.049L279.369,197.049H437.53v8.033
	H279.369V197.049z M279.369,91.108L279.369,91.108H437.53v8.031H279.369V91.108z M279.369,172.106L279.369,172.106h69.249v8.031
	h-69.249V172.106z M279.369,155.906L279.369,155.906H437.53v8.031H279.369V155.906z M279.369,139.706L279.369,139.706H437.53v8.032
	H279.369V139.706z M279.369,123.507L279.369,123.507h69.249v8.031h-69.249V123.507z M279.369,107.307L279.369,107.307H437.53v8.032
	H279.369V107.307z M279.369,278.049L279.369,278.049h54.433v8.031h-54.433V278.049z M279.369,261.849L279.369,261.849H437.53v8.032
	H279.369V261.849z M279.369,245.65L279.369,245.65H437.53v8.031H279.369V245.65z M279.369,229.45L279.369,229.45H437.53v8.032
	H279.369V229.45z M279.369,213.25L279.369,213.25H437.53v8.03H279.369V213.25z M68.606,91.108L68.606,91.108h158.161v8.031H68.606
	V91.108z M68.606,172.106L68.606,172.106h69.253v8.031H68.606V172.106z M68.606,155.906L68.606,155.906h158.161v8.031H68.606
	V155.906z M68.606,139.706L68.606,139.706h158.161v8.032H68.606V139.706z M68.606,123.507L68.606,123.507h158.161v8.031H68.606
	V123.507z M68.606,107.307L68.606,107.307h158.161v8.032H68.606V107.307z M68.606,278.049L68.606,278.049h54.435v8.031H68.606
	V278.049z M68.606,261.849L68.606,261.849h158.161v8.032H68.606V261.849z M68.606,245.65L68.606,245.65h158.161v8.031H68.606V245.65
	z M68.606,229.45L68.606,229.45h158.161v8.032H68.606V229.45z M68.606,213.25L68.606,213.25h158.161v8.03H68.606V213.25z"/>
<path style="fill:#0E7886;" d="M256.006,96.207c59.782,6.655,102.852,60.515,96.197,120.296
	c-4.109,36.933-26.239,67.479-56.646,83.872l5.704,12.958l-13.574,5.927l-5.615-12.756c-15.507,5.809-32.578,8.156-50.163,6.2
	c-59.782-6.654-102.853-60.515-96.2-120.296C142.363,132.625,196.221,89.554,256.006,96.207z M254.602,108.819L254.602,108.819
	c-52.82-5.877-100.404,32.175-106.282,84.993c-5.879,52.816,32.174,100.4,84.991,106.281c52.816,5.877,100.401-32.176,106.28-84.993
	C345.47,162.282,307.418,114.698,254.602,108.819L254.602,108.819z"/>
<path style="fill:#FBB429;" d="M282.548,321.502l23.702-10.346c3.556-1.552,7.735,0.086,9.281,3.639l48.298,110.998
	c1.548,3.555-0.087,7.732-3.639,9.28l-23.703,10.346c-3.553,1.55-7.734-0.085-9.279-3.639l-48.301-110.999
	C277.364,327.225,278.993,323.053,282.548,321.502L282.548,321.502z"/>
<path style="fill:#ECF0F1;" d="M269.49,111.268c51.467,14.101,81.757,67.254,67.657,118.721
	c-14.101,51.464-67.256,81.757-118.72,67.656c-51.468-14.103-81.758-67.256-67.657-118.723
	C164.869,127.458,218.025,97.168,269.49,111.268z"/>
<path style="fill:#D0D1D4;" d="M147.387,200.705h68.015v11.501h-67.778C147.318,208.409,147.233,204.569,147.387,200.705z
	 M290.733,119.894L290.733,119.894c5.343,2.949,10.336,6.364,14.94,10.188h-14.94V119.894z M317.5,141.78L317.5,141.78
	c3.086,3.628,5.895,7.476,8.409,11.503h-35.176V141.78H317.5L317.5,141.78z M332.15,164.983L332.15,164.983
	c1.674,3.73,3.107,7.571,4.299,11.5h-45.716v-11.5H332.15z M340.529,200.705L340.529,200.705c0.146,3.806,0.065,7.644-0.251,11.501
	h-49.545v-11.501H340.529z M338.598,223.904L338.598,223.904c-0.418,2.03-0.898,4.06-1.452,6.086
	c-0.502,1.833-1.06,3.636-1.661,5.416h-44.753v-11.502L338.598,223.904L338.598,223.904z M330.669,247.105L330.669,247.105
	c-1.971,4.016-4.194,7.859-6.656,11.501h-33.28v-11.501H330.669z M314.685,270.303L314.685,270.303
	c-3.938,4.225-8.233,8.071-12.824,11.505h-11.129v-11.505H314.685z M261.118,299.565L261.118,299.565
	c-3.372,0.608-6.791,1.04-10.24,1.285V108.07c3.404,0.249,6.819,0.681,10.24,1.303V299.565z M215.402,296.759L215.402,296.759
	c-3.069-0.949-6.059-2.033-8.964-3.253h8.964V296.759z M186.012,281.807L186.012,281.807c-4.624-3.466-8.889-7.322-12.774-11.505
	h42.165v11.505H186.012z M163.937,258.606L163.937,258.606c-2.484-3.675-4.714-7.522-6.674-11.501h58.139v11.501H163.937z
	 M152.415,235.406L152.415,235.406c-1.272-3.754-2.315-7.597-3.123-11.502h66.11v11.502H152.415z M161.976,153.283L161.976,153.283
	c2.538-4.067,5.357-7.909,8.425-11.503h45.002v11.503H161.976z M182.274,130.082L182.274,130.082
	c5.38-4.455,11.223-8.313,17.412-11.505h15.716v11.505H182.274z"/>
<path style="fill:#FFFFFF;" d="M161.448,200.705c1.781-19.625,10.2-38.758,25.258-53.751c14.952-14.885,33.959-23.21,53.446-24.984
	c2.055-0.186,3.893,0.429,5.419,1.819c1.522,1.389,2.312,3.163,2.317,5.224l0.001,0.84c0.009,3.685-2.773,6.744-6.442,7.081
	c-16.095,1.485-31.792,8.366-44.143,20.662c-12.439,12.384-19.404,28.189-20.895,44.399c-0.335,3.665-3.391,6.449-7.073,6.443
	l-0.842-0.004c-2.064-0.004-3.836-0.791-5.225-2.312C161.881,204.597,161.261,202.758,161.448,200.705L161.448,200.705z
	 M172.298,216.61L172.298,216.61c3.008,3.021,2.999,7.907-0.022,10.915c-3.023,3.008-7.908,2.999-10.919-0.024
	c-3.007-3.022-2.996-7.909,0.026-10.918C164.404,213.577,169.29,213.587,172.298,216.61z"/>
<g>
</g>
<g>
</g>
<g>
</g>
<g>
</g>
<g>
</g>
<g>
</g>
<g>
</g>
<g>
</g>
<g>
</g>
<g>
</g>
<g>
</g>
<g>
</g>
<g>
</g>
<g>
</g>
<g>
</g>
</svg>
